<svg width="16" height="16" viewBox="0 0 16 16" fill="none" xmlns="http://www.w3.org/2000/svg">
<path d="M14.3838 4.40875L11.5913 1.61562C11.4752 1.4995 11.3374 1.40738 11.1857 1.34453C11.034 1.28168 10.8714 1.24933 10.7072 1.24933C10.543 1.24933 10.3804 1.28168 10.2287 1.34453C10.077 1.40738 9.93921 1.4995 9.82313 1.61562L2.11626 9.32312C1.99976 9.43886 1.90739 9.57657 1.84452 9.72828C1.78165 9.87998 1.74953 10.0427 1.75001 10.2069V13C1.75001 13.3315 1.8817 13.6495 2.11612 13.8839C2.35054 14.1183 2.66848 14.25 3.00001 14.25H5.79313C5.95734 14.2504 6.12001 14.2183 6.27171 14.1554C6.42341 14.0926 6.56112 14.0002 6.67688 13.8837L14.3838 6.17625C14.6181 5.94184 14.7497 5.62395 14.7497 5.2925C14.7497 4.96104 14.6181 4.64316 14.3838 4.40875ZM5.68751 12.75H3.25001V10.3125L8.5 5.0625L10.9375 7.5L5.68751 12.75ZM12 6.4375L9.5625 4L10.7088 2.85375L13.1463 5.29125L12 6.4375Z" fill="black"/>
</svg>
