<svg width="113" height="28" viewBox="0 0 113 28" fill="none" xmlns="http://www.w3.org/2000/svg">
<path fill-rule="evenodd" clip-rule="evenodd" d="M15.8536 3.66793C16.7574 2.76173 18.2228 2.76173 19.1266 3.66793C20.0305 4.5742 20.0305 6.04352 19.1266 6.94979L13.6162 12.475C12.0341 10.349 12.206 7.32532 14.1318 5.39435L15.8536 3.66793Z" fill="#4F9E91"/>
<path fill-rule="evenodd" clip-rule="evenodd" d="M23.731 16.1337C24.635 17.0398 24.635 18.5092 23.731 19.4154C22.8277 20.3217 21.3621 20.3217 20.4582 19.4154L14.9478 13.8903C17.0681 12.304 20.0837 12.4763 22.0095 14.4072L23.731 16.1337Z" fill="#EBE1C5"/>
<path fill-rule="evenodd" clip-rule="evenodd" d="M11.2988 24.0325C10.395 24.9388 8.92961 24.9388 8.0258 24.0325C7.12193 23.1262 7.12193 21.6569 8.0258 20.7506L13.5362 15.2256C15.1182 17.3516 14.9465 20.3752 13.0206 22.3061L11.2988 24.0325Z" fill="#EBCC6E"/>
<path fill-rule="evenodd" clip-rule="evenodd" d="M3.4213 11.5668C2.51745 10.6605 2.51745 9.19118 3.4213 8.28489C4.32515 7.37867 5.79053 7.37867 6.69438 8.28489L12.2048 13.8101C10.0845 15.3964 7.06884 15.2241 5.14309 13.2932L3.4213 11.5668Z" fill="#ED834E"/>
<path fill-rule="evenodd" clip-rule="evenodd" d="M14.6223 23.3559C15.9551 21.8701 16.5745 19.969 16.4805 18.0972L19.1269 20.7507C19.1335 20.7572 19.1401 20.7638 19.1468 20.7705V22.6649C19.1468 23.9465 18.1106 24.9854 16.8324 24.9854C15.7941 24.9854 14.9157 24.3 14.6223 23.3559Z" fill="#ED834E"/>
<path fill-rule="evenodd" clip-rule="evenodd" d="M4.09591 14.8989C5.57764 16.2353 7.47371 16.8564 9.34055 16.7622L6.69421 19.4157C6.68758 19.4222 6.68096 19.4289 6.67447 19.4355H4.7851C3.50689 19.4356 2.4707 18.3965 2.4707 17.1149C2.4707 16.0739 3.15429 15.1931 4.09591 14.8989Z" fill="#4F9E91"/>
<path fill-rule="evenodd" clip-rule="evenodd" d="M23.0565 12.8016C21.5749 11.4653 19.6788 10.8442 17.812 10.9384L20.4584 8.28494C20.465 8.2783 20.4715 8.27166 20.4781 8.26501H22.3675C23.6459 8.26501 24.6821 9.30401 24.6821 10.5856C24.6821 11.6266 23.9982 12.5075 23.0565 12.8016Z" fill="#EBCC6E"/>
<path fill-rule="evenodd" clip-rule="evenodd" d="M12.5303 4.34471C11.1975 5.83042 10.5782 7.73156 10.6721 9.60346L8.02573 6.94996C8.01911 6.94337 8.01248 6.93677 8.00586 6.93018V5.03574C8.00586 3.75412 9.04208 2.71509 10.3203 2.71509C11.3585 2.71509 12.237 3.40057 12.5303 4.34471Z" fill="#EBE1C5"/>
<path fill-rule="evenodd" clip-rule="evenodd" d="M10.3205 0.827026C8.00227 0.827026 6.12301 2.71133 6.12301 5.0357V5.85426C4.72835 5.4889 3.18273 5.85406 2.08981 6.9499C0.4506 8.59352 0.4506 11.2583 2.08981 12.9019L2.66704 13.4807C1.42323 14.2112 0.587891 15.5652 0.587891 17.1149C0.587891 19.4392 2.46716 21.3236 4.78534 21.3236H5.60165C5.23726 22.7219 5.60146 24.2717 6.69439 25.3675C8.3336 27.0111 10.9912 27.0111 12.6305 25.3675L14.3522 23.6411C15.8711 22.1182 16.5805 20.091 16.4803 18.097L19.1268 20.7505C20.766 22.3941 23.4238 22.3941 25.0631 20.7505C26.7023 19.1069 26.7023 16.4421 25.0631 14.7986L24.486 14.2199C25.7293 13.4894 26.5649 12.1354 26.5649 10.5857C26.5649 8.26129 24.6853 6.377 22.3674 6.377H21.551C21.9155 4.97856 21.5512 3.42881 20.4583 2.33296C18.8192 0.689369 16.1615 0.689369 14.5222 2.33296L12.8005 4.05937C11.2816 5.58227 10.5722 7.60948 10.6723 9.6034L8.02591 6.9499C8.01928 6.94331 8.01272 6.93671 8.00603 6.93011V5.0357C8.00603 3.75408 9.04226 2.71511 10.3205 2.71511C11.3586 2.71511 12.2372 3.40053 12.5305 4.34467C12.6175 4.24776 12.7075 4.15262 12.8005 4.05937L13.945 2.91174C13.2164 1.6646 11.866 0.827026 10.3205 0.827026ZM20.4781 8.26507C20.4714 8.27171 20.4649 8.27835 20.4583 8.28493L17.812 10.9384C19.6789 10.8442 21.5749 11.4652 23.0565 12.8017C23.9982 12.5075 24.682 11.6266 24.682 10.5857C24.682 9.30407 23.6459 8.26507 22.3674 8.26507H20.4781ZM6.67458 19.4354C6.68114 19.4288 6.6877 19.4222 6.69439 19.4155L9.34073 16.762C7.47389 16.8563 5.57788 16.2352 4.09615 14.8989C3.15453 15.1931 2.47088 16.0739 2.47088 17.1149C2.47088 18.3965 3.50713 19.4354 4.78534 19.4354H6.67458ZM16.8323 26.8735C15.2867 26.8735 13.9363 26.0359 13.2077 24.7888L14.3522 23.6411C14.4453 23.5479 14.5352 23.4527 14.6222 23.3558C14.9155 24.3 15.794 24.9854 16.8323 24.9854C18.1105 24.9854 19.1467 23.9465 19.1467 22.6649V20.7705C19.6891 21.3071 20.341 21.6658 21.0297 21.8462V22.6649C21.0297 24.9892 19.1504 26.8735 16.8323 26.8735ZM19.1268 3.668C18.223 2.76181 16.7576 2.76181 15.8538 3.668L14.1319 5.3944C12.2062 7.32538 12.0343 10.3491 13.6164 12.475L19.1268 6.94984C20.0307 6.04357 20.0307 4.57427 19.1268 3.668ZM23.7312 19.4155C24.6352 18.5092 24.6352 17.0399 23.7312 16.1337L22.0096 14.4072C20.0838 12.4763 17.0682 12.304 14.9479 13.8903L20.4583 19.4155C21.3621 20.3217 22.8279 20.3217 23.7312 19.4155ZM11.2989 24.0325C10.3951 24.9387 8.92971 24.9387 8.02584 24.0325C7.1221 23.1262 7.1221 21.6569 8.02584 20.7506L13.5363 15.2254C15.1183 17.3514 14.9465 20.3751 13.0207 22.306L11.2989 24.0325ZM3.42129 8.28493C2.51751 9.19122 2.51751 10.6605 3.42129 11.5668L5.14309 13.2932C7.06891 15.2241 10.0845 15.3965 12.2048 13.8101L6.69439 8.28493C5.79052 7.37877 4.32514 7.37877 3.42129 8.28493Z" fill="black"/>
<path d="M41.1475 21.4558C39.1646 21.4558 37.6492 20.8199 36.6015 19.5479C35.5581 18.2673 35.0364 16.4506 35.0364 14.0977C35.0364 12.9256 35.1944 11.8837 35.5105 10.9721C35.8265 10.0605 36.2703 9.28993 36.8418 8.66047C37.4089 8.03102 38.0822 7.5535 38.8615 7.22792C39.6451 6.89799 40.498 6.73303 41.4202 6.73303C41.9225 6.73303 42.3727 6.77644 42.771 6.86326C43.1737 6.94575 43.5265 7.03908 43.8296 7.14326C44.1327 7.25179 44.3859 7.36683 44.5894 7.48838C44.7972 7.60993 44.9531 7.70109 45.057 7.76187L44.3297 9.99536C43.9833 9.76528 43.5633 9.5721 43.0698 9.41582C42.5762 9.2552 42.0112 9.17489 41.3748 9.17489C40.9375 9.17489 40.5089 9.2552 40.0889 9.41582C39.6733 9.5721 39.3031 9.83691 38.9784 10.2102C38.6537 10.5836 38.3874 11.0806 38.1796 11.7014C37.9761 12.3265 37.8744 13.1014 37.8744 14.0261C37.8744 15.6366 38.1515 16.8716 38.7056 17.7312C39.2598 18.5907 40.1647 19.0205 41.4202 19.0205C42.1476 19.0205 42.7494 18.9358 43.2256 18.7665C43.7019 18.6016 44.085 18.4344 44.3751 18.2651L45.083 20.4791C44.689 20.7222 44.1543 20.9457 43.4789 21.1498C42.8035 21.3538 42.0264 21.4558 41.1475 21.4558ZM51.4863 19.1572C51.7894 19.1572 52.086 19.1529 52.376 19.1442C52.6618 19.1355 52.9107 19.116 53.1229 19.0856V16.6307C52.9454 16.596 52.7267 16.5678 52.467 16.5461C52.2115 16.5244 51.9756 16.5135 51.7591 16.5135C51.4733 16.5135 51.1941 16.533 50.9213 16.5721C50.6486 16.6112 50.4104 16.6741 50.207 16.7609C50.0035 16.8521 49.8389 16.9823 49.7134 17.1516C49.5922 17.3209 49.5316 17.5423 49.5316 17.8158C49.5316 18.302 49.7156 18.6471 50.0836 18.8512C50.4472 19.0552 50.9148 19.1572 51.4863 19.1572ZM51.2395 10.1777C52.1184 10.1777 52.8501 10.2797 53.4346 10.4837C54.0191 10.6878 54.4845 10.9764 54.8309 11.3498C55.1772 11.7231 55.4283 12.1789 55.5842 12.7172C55.7357 13.2555 55.8115 13.8589 55.8115 14.5275V20.9088C55.4002 21 54.7941 21.1085 53.9931 21.2344C53.1878 21.356 52.2851 21.4168 51.285 21.4168C50.6009 21.4168 49.984 21.356 49.4341 21.2344C48.88 21.1085 48.4059 20.9067 48.0119 20.6288C47.6179 20.3467 47.3148 19.982 47.1027 19.5349C46.8906 19.0834 46.7845 18.5321 46.7845 17.8809C46.7845 17.2558 46.9057 16.7306 47.1482 16.3051C47.3906 15.8797 47.7175 15.5389 48.1288 15.2828C48.5358 15.0267 49.0034 14.84 49.5316 14.7228C50.0641 14.6099 50.6183 14.5535 51.1941 14.5535C51.9214 14.5535 52.5644 14.6143 53.1229 14.7358V14.3907C53.1229 13.8611 52.9562 13.4183 52.6228 13.0623C52.2938 12.702 51.7201 12.5219 50.9018 12.5219C50.3693 12.5219 49.8563 12.5609 49.3627 12.6391C48.8735 12.7129 48.4773 12.804 48.1743 12.9126L47.7846 10.653C48.1353 10.5315 48.6288 10.423 49.2653 10.3275C49.9017 10.2276 50.5598 10.1777 51.2395 10.1777ZM64.9489 10.3405C65.5377 10.3405 66.0226 10.4295 66.4036 10.6075C66.7803 10.7898 67.079 11.0633 67.2998 11.4279C67.5206 11.7926 67.6678 12.2527 67.7414 12.8084C67.815 13.364 67.8518 14.013 67.8518 14.7554V21.1628H65.5788V14.6186C65.5788 14.1975 65.5529 13.8568 65.5009 13.5963C65.449 13.3358 65.3819 13.1383 65.2996 13.0037C65.2173 12.8648 65.1178 12.7737 65.0009 12.7302C64.8883 12.6825 64.7714 12.6586 64.6502 12.6586C64.5116 12.6586 64.3688 12.6716 64.2215 12.6977C64.0657 12.7194 63.9293 12.7606 63.8124 12.8214C63.8557 13.1079 63.8925 13.427 63.9228 13.7786C63.9531 14.1259 63.9683 14.5144 63.9683 14.9442V17.08H61.6953V14.6186C61.6953 13.8893 61.6238 13.3814 61.481 13.0949C61.3381 12.804 61.1065 12.6586 60.7861 12.6586C60.6952 12.6586 60.5848 12.6673 60.4549 12.6847C60.3293 12.6977 60.2059 12.7194 60.0847 12.7498V21.1628H57.8117V10.8614C58.4005 10.6921 58.9829 10.5619 59.5587 10.4707C60.1345 10.3839 60.6411 10.3405 61.0783 10.3405C61.4766 10.3405 61.8295 10.3882 62.1369 10.4837C62.4486 10.5836 62.717 10.7464 62.9422 10.9721C63.202 10.8071 63.5072 10.6595 63.8579 10.5293C64.2042 10.4034 64.5679 10.3405 64.9489 10.3405ZM74.2162 19.1572C74.5193 19.1572 74.8158 19.1529 75.1059 19.1442C75.3917 19.1355 75.6428 19.116 75.8592 19.0856V16.6307C75.6774 16.596 75.4566 16.5678 75.1968 16.5461C74.9371 16.5244 74.7011 16.5135 74.489 16.5135C74.2032 16.5135 73.924 16.533 73.6512 16.5721C73.3784 16.6112 73.1403 16.6741 72.9368 16.7609C72.7333 16.8521 72.571 16.9823 72.4498 17.1516C72.3285 17.3209 72.2679 17.5423 72.2679 17.8158C72.2679 18.302 72.4476 18.6471 72.807 18.8512C73.1706 19.0552 73.6404 19.1572 74.2162 19.1572ZM73.9694 10.1777C74.8483 10.1777 75.58 10.2797 76.1645 10.4837C76.749 10.6878 77.2144 10.9764 77.5607 11.3498C77.9071 11.7231 78.1582 12.1789 78.3141 12.7172C78.4656 13.2555 78.5414 13.8589 78.5414 14.5275V20.9088C78.1301 21 77.5239 21.1085 76.723 21.2344C75.9177 21.356 75.015 21.4168 74.0149 21.4168C73.3308 21.4168 72.7139 21.356 72.164 21.2344C71.6098 21.1085 71.1358 20.9067 70.7418 20.6288C70.3478 20.3467 70.0447 19.982 69.8326 19.5349C69.6204 19.0834 69.5144 18.5321 69.5144 17.8809C69.5144 17.2558 69.6356 16.7306 69.878 16.3051C70.1205 15.8797 70.4474 15.5389 70.8587 15.2828C71.2657 15.0267 71.7354 14.84 72.2679 14.7228C72.7961 14.6099 73.3481 14.5535 73.924 14.5535C74.6513 14.5535 75.2964 14.6143 75.8592 14.7358V14.3907C75.8592 13.8611 75.6904 13.4183 75.3527 13.0623C75.0237 12.702 74.45 12.5219 73.6317 12.5219C73.0992 12.5219 72.5862 12.5609 72.0926 12.6391C71.6034 12.7129 71.205 12.804 70.8976 12.9126L70.5145 10.653C70.8608 10.5315 71.3544 10.423 71.9952 10.3275C72.6316 10.2276 73.2897 10.1777 73.9694 10.1777ZM83.4705 15.4651C83.4705 16.3464 83.6307 17.0192 83.9511 17.4837C84.2671 17.9439 84.7672 18.174 85.4513 18.174C85.7543 18.174 86.0379 18.1371 86.302 18.0633C86.5661 17.9851 86.8042 17.8875 87.0164 17.7702V12.613C86.8042 12.5696 86.6137 12.5392 86.4449 12.5219C86.2804 12.5088 86.1072 12.5023 85.9253 12.5023C84.2888 12.5023 83.4705 13.4899 83.4705 15.4651ZM89.8349 10.7898V19.8605C89.8349 21.6099 89.4149 22.9036 88.575 23.7414C87.7308 24.5749 86.3778 24.9916 84.5161 24.9916C83.8493 24.9916 83.2086 24.9222 82.5938 24.7833C81.9833 24.6487 81.3967 24.4902 80.8339 24.3079L81.3599 21.9377C81.7972 22.1026 82.2583 22.2589 82.7432 22.4065C83.2281 22.5498 83.8342 22.6214 84.5616 22.6214C85.0465 22.6214 85.4469 22.565 85.763 22.4521C86.0834 22.3349 86.3345 22.1786 86.5163 21.9833C86.6982 21.7836 86.8259 21.5513 86.8995 21.2865C86.9774 21.0217 87.0164 20.7374 87.0164 20.4335V19.9972C86.6224 20.1535 86.2631 20.2685 85.9383 20.3423C85.6136 20.4161 85.2608 20.453 84.8798 20.453C83.4857 20.453 82.4293 20.0124 81.7106 19.1312C80.9919 18.2543 80.6325 17.0323 80.6325 15.4651C80.6325 13.7026 81.1153 12.3873 82.0807 11.5191C83.0549 10.6552 84.3732 10.2233 86.0358 10.2233C87.2047 10.2233 88.4711 10.4121 89.8349 10.7898ZM101.674 10.6986L101.18 13.2968C100.999 13.2533 100.782 13.2078 100.531 13.16C100.28 13.1166 100.027 13.0754 99.7711 13.0363C99.5113 12.9972 99.2602 12.9712 99.0178 12.9581C98.7753 12.9408 98.5718 12.9321 98.4073 12.9321C98.009 12.9321 97.6215 12.9516 97.2448 12.9907C96.8638 13.0298 96.4763 13.1014 96.0824 13.2056V21.1628H93.2639V11.1544C94.0085 10.8809 94.7705 10.6617 95.5498 10.4968C96.3335 10.3275 97.247 10.2428 98.2904 10.2428C98.4419 10.2428 98.6584 10.2515 98.9398 10.2688C99.2212 10.2819 99.52 10.3079 99.836 10.347C100.156 10.3861 100.479 10.4316 100.804 10.4837C101.128 10.5358 101.418 10.6075 101.674 10.6986ZM112.565 10.4512V20.7981C112.05 20.9327 111.424 21.0695 110.688 21.2084C109.956 21.3473 109.157 21.4168 108.292 21.4168C107.413 21.4168 106.692 21.293 106.129 21.0456C105.57 20.8068 105.129 20.4617 104.804 20.0102C104.479 19.5631 104.254 19.0357 104.129 18.4279C104.008 17.8202 103.947 17.1516 103.947 16.4223V10.4512H106.746V16.0577C106.746 17.0431 106.863 17.7768 107.097 18.2586C107.33 18.7361 107.789 18.9749 108.473 18.9749C108.898 18.9749 109.322 18.9358 109.746 18.8577V10.4512H112.565Z" fill="black"/>
</svg>
