<svg width="16" height="16" viewBox="0 0 16 16" fill="none" xmlns="http://www.w3.org/2000/svg">
<path d="M10.75 8.5C10.75 8.69891 10.671 8.88968 10.5303 9.03033C10.3897 9.17098 10.1989 9.25 10 9.25H8.75V10.5C8.75 10.6989 8.67098 10.8897 8.53033 11.0303C8.38968 11.171 8.19891 11.25 8 11.25C7.80109 11.25 7.61032 11.171 7.46967 11.0303C7.32902 10.8897 7.25 10.6989 7.25 10.5V9.25H6C5.80109 9.25 5.61032 9.17098 5.46967 9.03033C5.32902 8.88968 5.25 8.69891 5.25 8.5C5.25 8.30109 5.32902 8.11032 5.46967 7.96967C5.61032 7.82902 5.80109 7.75 6 7.75H7.25V6.5C7.25 6.30109 7.32902 6.11032 7.46967 5.96967C7.61032 5.82902 7.80109 5.75 8 5.75C8.19891 5.75 8.38968 5.82902 8.53033 5.96967C8.67098 6.11032 8.75 6.30109 8.75 6.5V7.75H10C10.1989 7.75 10.3897 7.82902 10.5303 7.96967C10.671 8.11032 10.75 8.30109 10.75 8.5ZM14.75 5V12C14.75 12.2298 14.7047 12.4574 14.6168 12.6697C14.5288 12.882 14.3999 13.0749 14.2374 13.2374C14.0749 13.3999 13.882 13.5288 13.6697 13.6168C13.4574 13.7047 13.2298 13.75 13 13.75H3C2.53587 13.75 2.09075 13.5656 1.76256 13.2374C1.43437 12.9092 1.25 12.4641 1.25 12V5C1.25 4.53587 1.43437 4.09075 1.76256 3.76256C2.09075 3.43437 2.53587 3.25 3 3.25H4.59875L5.2275 2.30687C5.34161 2.13561 5.49625 1.99518 5.67767 1.89803C5.8591 1.80089 6.0617 1.75004 6.2675 1.75H9.7325C9.9383 1.75004 10.1409 1.80089 10.3223 1.89803C10.5038 1.99518 10.6584 2.13561 10.7725 2.30687L11.4012 3.25H13C13.2298 3.25 13.4574 3.29527 13.6697 3.38321C13.882 3.47116 14.0749 3.60006 14.2374 3.76256C14.3999 3.92507 14.5288 4.11798 14.6168 4.3303C14.7047 4.54262 14.75 4.77019 14.75 5ZM13.25 5C13.25 4.9337 13.2237 4.87011 13.1768 4.82322C13.1299 4.77634 13.0663 4.75 13 4.75H11C10.8764 4.75018 10.7546 4.71981 10.6456 4.66158C10.5366 4.60335 10.4436 4.51908 10.375 4.41625L9.59875 3.25H6.40125L5.625 4.41625C5.55639 4.51908 5.46344 4.60335 5.3544 4.66158C5.24536 4.71981 5.12361 4.75018 5 4.75H3C2.9337 4.75 2.87011 4.77634 2.82322 4.82322C2.77634 4.87011 2.75 4.9337 2.75 5V12C2.75 12.0663 2.77634 12.1299 2.82322 12.1768C2.87011 12.2237 2.9337 12.25 3 12.25H13C13.0663 12.25 13.1299 12.2237 13.1768 12.1768C13.2237 12.1299 13.25 12.0663 13.25 12V5Z" fill="white"/>
</svg>
