<svg width="16" height="16" viewBox="0 0 16 16" fill="none" xmlns="http://www.w3.org/2000/svg">
<path d="M13.8837 4.32313L11.6769 2.11625C11.5611 1.99978 11.4234 1.90744 11.2717 1.84457C11.12 1.7817 10.9573 1.74956 10.7931 1.75H3C2.66848 1.75 2.35054 1.8817 2.11612 2.11612C1.8817 2.35054 1.75 2.66848 1.75 3V13C1.75 13.3315 1.8817 13.6495 2.11612 13.8839C2.35054 14.1183 2.66848 14.25 3 14.25H13C13.3315 14.25 13.6495 14.1183 13.8839 13.8839C14.1183 13.6495 14.25 13.3315 14.25 13V5.20688C14.2504 5.04267 14.2183 4.88 14.1554 4.7283C14.0926 4.5766 14.0002 4.43889 13.8837 4.32313ZM10.25 12.75H5.75V10H10.25V12.75ZM12.75 12.75H11.75V9.75C11.75 9.41848 11.6183 9.10054 11.3839 8.86612C11.1495 8.6317 10.8315 8.5 10.5 8.5H5.5C5.16848 8.5 4.85054 8.6317 4.61612 8.86612C4.3817 9.10054 4.25 9.41848 4.25 9.75V12.75H3.25V3.25H10.6875L12.75 5.3125V12.75ZM10.25 5.25C10.25 5.44892 10.171 5.63968 10.0303 5.78033C9.88968 5.92099 9.69891 6 9.5 6H6C5.80109 6 5.61032 5.92099 5.46967 5.78033C5.32902 5.63968 5.25 5.44892 5.25 5.25C5.25 5.05109 5.32902 4.86033 5.46967 4.71967C5.61032 4.57902 5.80109 4.5 6 4.5H9.5C9.69891 4.5 9.88968 4.57902 10.0303 4.71967C10.171 4.86033 10.25 5.05109 10.25 5.25Z" fill="white"/>
</svg>
