<svg width="16" height="16" viewBox="0 0 16 16" fill="none" xmlns="http://www.w3.org/2000/svg">
<path d="M14.25 8.99998V13C14.25 13.1989 14.171 13.3897 14.0303 13.5303C13.8897 13.671 13.6989 13.75 13.5 13.75H2.5C2.30109 13.75 2.11032 13.671 1.96967 13.5303C1.82902 13.3897 1.75 13.1989 1.75 13V8.99998C1.75 8.80107 1.82902 8.6103 1.96967 8.46965C2.11032 8.329 2.30109 8.24998 2.5 8.24998C2.69891 8.24998 2.88968 8.329 3.03033 8.46965C3.17098 8.6103 3.25 8.80107 3.25 8.99998V12.25H12.75V8.99998C12.75 8.80107 12.829 8.6103 12.9697 8.46965C13.1103 8.329 13.3011 8.24998 13.5 8.24998C13.6989 8.24998 13.8897 8.329 14.0303 8.46965C14.171 8.6103 14.25 8.80107 14.25 8.99998ZM6.03062 5.03061L7.25 3.81248V8.99998C7.25 9.19889 7.32902 9.38966 7.46967 9.53031C7.61032 9.67096 7.80109 9.74998 8 9.74998C8.19891 9.74998 8.38968 9.67096 8.53033 9.53031C8.67098 9.38966 8.75 9.19889 8.75 8.99998V3.81248L9.96937 5.03248C10.0391 5.10225 10.122 5.15759 10.2131 5.19534C10.3043 5.2331 10.402 5.25253 10.5006 5.25253C10.5993 5.25253 10.697 5.2331 10.7881 5.19534C10.8793 5.15759 10.9621 5.10225 11.0319 5.03248C11.1016 4.96272 11.157 4.87989 11.1947 4.78874C11.2325 4.69759 11.2519 4.59989 11.2519 4.50123C11.2519 4.40257 11.2325 4.30487 11.1947 4.21372C11.157 4.12257 11.1016 4.03975 11.0319 3.96998L8.53187 1.46998C8.4622 1.40006 8.3794 1.34458 8.28824 1.30673C8.19707 1.26888 8.09934 1.24939 8.00062 1.24939C7.90191 1.24939 7.80417 1.26888 7.71301 1.30673C7.62185 1.34458 7.53905 1.40006 7.46938 1.46998L4.96938 3.96998C4.89961 4.03975 4.84427 4.12257 4.80651 4.21372C4.76876 4.30487 4.74932 4.40257 4.74932 4.50123C4.74932 4.70049 4.82848 4.89158 4.96938 5.03248C5.11027 5.17338 5.30137 5.25253 5.50063 5.25253C5.69988 5.25253 5.89098 5.17338 6.03188 5.03248L6.03062 5.03061Z" fill="black"/>
</svg>
